<?xml version="1.0" standalone="no"?>
<!DOCTYPE svg PUBLIC "-//W3C//DTD SVG 20010904//EN"
 "http://www.w3.org/TR/2001/REC-SVG-20010904/DTD/svg10.dtd">
<svg version="1.0" xmlns="http://www.w3.org/2000/svg"
 width="632.000000pt" height="632.000000pt" viewBox="0 0 632.000000 632.000000"
 preserveAspectRatio="xMidYMid meet">
<metadata>
Created by potrace 1.11, written by Peter Selinger 2001-2013
</metadata>
<g transform="translate(0.000000,632.000000) scale(0.100000,-0.100000)"
fill="#000000" stroke="none">
<path d="M3280 6301 c-92 -17 -245 -57 -265 -69 -5 -4 -12 -7 -15 -7 -3 -1
-20 -9 -37 -18 -18 -10 -33 -14 -33 -10 0 5 -4 3 -8 -3 -4 -6 -31 -21 -59 -34
-29 -13 -53 -27 -53 -32 0 -4 -6 -8 -13 -8 -7 0 -23 -9 -35 -20 -12 -11 -24
-20 -27 -20 -27 0 -240 -205 -312 -300 -133 -176 -262 -452 -299 -640 -3 -14
-9 -41 -14 -60 -9 -37 -20 -101 -26 -160 -2 -19 -6 -53 -9 -75 -5 -52 -5 -270
0 -360 8 -126 13 -170 30 -265 2 -14 7 -45 10 -70 4 -25 11 -65 17 -90 5 -25
12 -56 14 -70 11 -57 56 -228 69 -263 8 -20 15 -39 14 -42 -2 -19 179 -521
221 -612 11 -24 20 -48 20 -53 0 -6 9 -30 20 -52 11 -23 20 -47 20 -52 1 -6 9
-29 20 -51 11 -22 19 -43 20 -47 0 -7 114 -286 136 -333 7 -16 41 -95 75 -175
34 -80 72 -169 85 -198 13 -29 24 -55 24 -57 0 -3 16 -39 35 -81 19 -41 35
-77 35 -79 0 -2 25 -56 55 -120 30 -65 55 -118 55 -120 0 -2 18 -42 40 -91 46
-99 40 -100 99 11 18 33 50 92 72 130 21 39 48 88 59 110 12 22 30 56 42 75
11 19 36 64 55 100 18 36 38 72 43 80 14 22 210 380 210 384 0 1 26 49 58 107
32 57 77 138 99 180 l42 77 -93 213 c-50 118 -118 279 -150 359 -32 80 -66
163 -76 185 -9 22 -61 157 -115 300 -53 143 -99 267 -103 275 -3 8 -6 17 -7
20 -1 3 -23 70 -49 150 -41 125 -100 322 -111 370 -2 8 -13 56 -25 105 -12 50
-24 101 -27 115 -2 14 -8 41 -13 60 -4 19 -12 58 -16 85 -4 28 -9 57 -10 65
-2 8 -6 35 -9 60 -3 25 -8 65 -11 90 -7 50 -7 241 -1 280 3 14 8 47 12 75 10
71 52 194 81 237 13 21 24 41 24 45 0 15 115 129 155 155 47 29 103 57 130 63
108 25 152 30 225 29 131 -2 212 -21 325 -75 183 -87 313 -237 389 -446 14
-40 24 -73 21 -73 -2 0 -1 -10 4 -23 5 -12 12 -51 15 -86 4 -34 7 -65 7 -69 1
-4 0 -11 -1 -17 -1 -5 -1 -23 -1 -40 3 -54 -23 -206 -41 -239 -6 -12 -11 -23
-11 -26 0 -16 -14 -51 -45 -109 -99 -190 -257 -350 -514 -518 -69 -46 -129
-92 -133 -102 -9 -29 5 -70 29 -83 44 -25 63 -19 167 50 427 281 644 553 702
879 14 80 11 240 -6 333 -14 74 -22 104 -42 161 -61 171 -160 315 -295 424
-75 60 -259 154 -334 170 -42 8 -62 13 -101 24 -115 30 -397 36 -535 12z"/>
<path d="M5583 5642 c-14 -2 -34 -22 -53 -53 -16 -27 -30 -51 -30 -54 0 -2
-15 -30 -34 -62 -30 -52 -84 -152 -138 -253 -10 -19 -22 -42 -28 -50 -5 -8
-35 -62 -66 -120 -32 -58 -73 -132 -91 -165 -19 -33 -42 -78 -53 -100 -11 -22
-30 -58 -43 -80 -13 -22 -43 -76 -67 -120 -23 -44 -62 -114 -85 -155 -23 -41
-64 -115 -90 -165 -27 -49 -56 -103 -65 -120 -123 -221 -260 -475 -260 -483 0
-6 -4 -12 -9 -14 -4 -1 -28 -41 -51 -88 -24 -47 -46 -87 -49 -90 -3 -3 -13
-18 -21 -35 -8 -16 -29 -55 -46 -85 -17 -30 -49 -89 -71 -130 -22 -41 -91
-167 -154 -280 -62 -113 -124 -227 -138 -255 -13 -27 -28 -51 -33 -53 -4 -2
-8 -8 -8 -13 0 -5 -23 -51 -51 -101 -69 -124 -99 -179 -144 -263 -33 -60 -116
-213 -238 -435 -17 -30 -38 -68 -47 -85 -15 -26 -51 -93 -238 -435 -19 -36
-95 -175 -169 -309 -73 -134 -133 -247 -133 -252 0 -5 -4 -9 -8 -9 -4 0 -13
-12 -19 -27 -7 -16 -34 -68 -62 -118 -27 -49 -69 -126 -92 -170 -23 -44 -46
-81 -50 -83 -5 -2 -9 -8 -9 -13 0 -6 -23 -52 -51 -102 -48 -87 -50 -94 -40
-129 11 -34 26 -47 69 -54 14 -3 72 43 72 57 0 4 20 43 45 85 25 41 45 77 45
79 0 3 33 64 74 137 40 73 89 162 108 198 35 65 180 329 233 425 15 28 42 77
60 110 18 33 46 85 63 115 109 199 143 262 172 315 18 33 43 78 55 100 32 57
83 152 114 210 14 28 28 52 31 55 3 3 11 16 18 30 6 14 34 66 61 115 28 50 58
106 68 125 9 19 26 51 38 70 12 19 41 71 65 115 24 44 56 104 71 133 16 28 43
78 60 110 17 31 39 71 49 87 9 17 33 59 52 95 104 194 132 245 137 250 3 3 16
25 28 50 12 25 40 77 62 115 21 39 60 111 86 160 27 50 51 92 54 95 3 3 16 25
28 50 26 51 92 174 127 234 24 42 93 169 130 241 12 22 24 42 29 43 4 2 7 8 7
13 0 5 20 44 44 87 24 42 59 106 78 142 19 36 48 90 65 120 17 30 45 82 63
115 46 86 210 384 233 425 11 19 42 78 70 130 27 52 57 103 65 113 8 9 11 17
6 17 -5 0 -4 4 1 8 6 4 18 23 29 42 10 19 30 58 46 85 119 217 122 223 110
259 -12 36 -45 55 -87 48z"/>
<path d="M1830 3570 c-33 -6 -499 -239 -520 -260 -3 -3 -25 -16 -50 -29 -55
-30 -263 -162 -270 -171 -3 -4 -20 -15 -37 -25 -18 -11 -33 -23 -33 -27 0 -4
-5 -8 -10 -8 -19 0 -215 -168 -305 -262 -113 -116 -207 -236 -261 -333 -6 -11
-22 -40 -36 -65 -32 -59 -102 -230 -121 -300 -16 -58 -38 -159 -53 -250 -10
-58 -12 -361 -3 -425 27 -193 109 -422 205 -573 19 -29 34 -57 34 -62 0 -6 3
-10 8 -10 4 0 18 -18 32 -40 14 -22 28 -40 32 -40 5 0 8 -4 8 -10 0 -5 10 -20
23 -33 12 -13 47 -50 78 -83 210 -221 482 -376 749 -425 36 -6 77 -15 91 -19
15 -5 103 -7 195 -5 157 3 198 6 264 21 14 3 39 8 55 11 17 2 55 12 85 21 30
8 60 17 65 18 78 16 304 118 428 193 73 44 87 57 110 103 29 58 107 203 138
256 20 35 18 35 -46 -8 -56 -38 -159 -85 -230 -106 -79 -23 -221 -23 -295 -1
-166 51 -330 175 -472 357 -32 41 -62 80 -67 86 -23 28 -120 207 -155 283 -56
123 -118 326 -130 421 -3 19 -5 35 -6 35 -21 0 -15 612 6 647 3 4 7 26 9 48
16 158 110 396 225 570 61 93 208 249 313 333 41 33 47 43 47 75 0 66 -40 103
-100 92z"/>
<path d="M5307 3375 c-43 -9 -86 -42 -87 -67 0 -3 -17 -37 -39 -75 -46 -81
-104 -189 -140 -258 -14 -27 -29 -52 -32 -55 -14 -12 -78 -159 -84 -190 -9
-58 -15 -203 -8 -228 7 -28 -10 -56 187 308 31 58 61 112 66 120 5 8 20 35 33
60 61 113 188 344 196 354 4 6 11 19 14 29 6 15 1 17 -26 15 -17 -1 -54 -7
-80 -13z"/>
<path d="M5556 3351 c-14 -22 -26 -43 -26 -45 0 -2 -29 -57 -65 -121 -36 -64
-65 -118 -65 -120 0 -2 -13 -26 -28 -52 -16 -26 -48 -84 -72 -128 -24 -44 -65
-119 -92 -168 -26 -48 -48 -92 -48 -97 0 -6 -4 -10 -9 -10 -5 0 -12 -8 -15
-18 -4 -11 -39 -79 -80 -153 l-73 -134 20 -30 c11 -16 32 -42 45 -57 l25 -28
45 78 c24 42 48 86 53 97 5 11 27 52 49 90 22 39 56 102 76 140 20 39 40 72
45 73 5 2 9 8 9 13 0 5 26 57 58 115 31 58 73 137 93 175 20 38 41 75 46 82 6
6 34 57 63 112 29 55 64 119 77 142 14 23 22 47 19 52 -3 5 -23 12 -43 16 -21
3 -48 9 -60 12 -17 4 -27 -4 -47 -36z"/>
<path d="M5833 3288 c-6 -7 -24 -38 -40 -68 -17 -30 -63 -116 -104 -190 -40
-74 -83 -152 -94 -172 -11 -20 -37 -70 -59 -110 -21 -40 -42 -77 -46 -83 -4
-5 -25 -44 -47 -85 -22 -41 -49 -91 -60 -110 -11 -19 -37 -66 -58 -105 -84
-155 -109 -201 -122 -220 -7 -11 -13 -23 -13 -26 0 -4 25 -20 56 -34 67 -32
65 -34 125 80 24 44 45 82 48 85 3 3 16 25 28 50 31 61 80 153 90 165 4 6 20
33 34 60 32 64 97 183 244 450 12 22 37 67 55 100 18 33 43 79 56 102 l23 42
-42 32 c-23 18 -47 36 -53 41 -7 5 -16 3 -21 -4z"/>
<path d="M5015 3267 c-121 -70 -203 -133 -219 -170 -8 -18 -31 -61 -51 -97
-20 -36 -53 -94 -72 -130 -19 -36 -44 -80 -55 -98 -11 -18 -19 -35 -16 -37 2
-2 26 16 53 41 46 41 107 85 177 128 16 9 34 31 42 49 8 17 31 61 51 97 20 36
48 88 63 115 14 28 31 57 37 65 16 20 26 50 17 49 -4 -1 -16 -6 -27 -12z"/>
<path d="M6033 3088 c-5 -7 -29 -49 -53 -93 -55 -103 -98 -181 -123 -225 -18
-32 -41 -74 -100 -185 -12 -22 -26 -43 -32 -47 -5 -4 -6 -8 -2 -8 5 0 -1 -13
-12 -29 -12 -16 -21 -32 -21 -35 0 -3 -26 -52 -58 -109 -32 -56 -66 -118 -76
-137 -9 -19 -35 -66 -56 -105 -21 -38 -36 -73 -34 -76 7 -12 138 1 151 14 10
11 61 102 153 274 17 32 35 65 40 73 10 15 90 162 268 490 l41 75 -30 60 c-37
72 -43 80 -56 63z"/>
<path d="M4425 2763 c-39 -42 -77 -84 -85 -93 -8 -8 -37 -42 -65 -75 -27 -33
-52 -62 -55 -65 -38 -37 -144 -179 -169 -228 -17 -34 -40 -77 -51 -95 -10 -17
-33 -58 -50 -90 -17 -32 -56 -104 -87 -160 -31 -56 -71 -131 -91 -167 -19 -36
-50 -91 -68 -122 -18 -32 -30 -58 -26 -58 4 0 2 -4 -4 -8 -6 -4 -37 -56 -69
-117 -32 -60 -61 -112 -65 -115 -3 -3 -10 -16 -16 -30 -6 -14 -43 -83 -83
-154 -39 -71 -71 -133 -71 -137 0 -4 17 -36 37 -70 43 -71 36 -75 106 55 105
195 182 334 199 359 11 15 16 27 12 27 -3 0 -1 6 5 13 14 18 77 131 97 177 9
19 19 37 23 40 3 3 14 21 25 40 36 69 89 167 147 272 32 59 59 111 59 116 0 6
4 12 9 14 4 2 29 44 55 93 26 50 56 104 65 120 10 17 34 61 54 99 20 38 42 75
48 82 6 8 8 14 5 14 -4 0 1 12 12 28 10 15 38 63 62 107 23 44 58 108 77 143
19 34 33 62 31 62 -2 0 -35 -35 -73 -77z"/>
<path d="M6147 2733 c-4 -10 -15 -31 -24 -48 -18 -29 -76 -135 -136 -245 -16
-30 -40 -73 -52 -95 -21 -38 -59 -106 -111 -202 -15 -28 -19 -43 -11 -43 14 0
109 62 154 101 95 80 173 251 189 414 3 33 7 72 9 87 3 34 -10 57 -18 31z"/>
<path d="M4213 2033 c-4 -10 -33 -64 -65 -121 -32 -58 -58 -106 -58 -107 0 -2
-27 -51 -60 -109 -33 -58 -60 -110 -60 -115 0 -5 -6 -16 -12 -23 -12 -12 -45
-71 -100 -178 -13 -25 -25 -47 -28 -50 -3 -3 -12 -18 -20 -35 -8 -16 -41 -77
-74 -135 -32 -58 -81 -148 -109 -200 -28 -52 -61 -113 -73 -134 -21 -37 -22
-40 -6 -65 9 -14 27 -37 39 -51 13 -14 23 -28 23 -32 0 -19 17 -5 35 30 11 20
40 73 64 117 51 92 89 163 139 255 19 36 43 79 52 95 30 53 126 229 168 305
58 109 85 155 95 168 5 6 6 12 2 12 -5 0 -1 8 7 18 9 9 41 65 72 124 l57 107
-36 70 c-20 39 -38 71 -41 71 -3 0 -8 -8 -11 -17z"/>
<path d="M4360 1740 c0 -5 -33 -69 -73 -142 -41 -73 -90 -162 -109 -198 -19
-36 -55 -101 -79 -145 -23 -44 -47 -81 -51 -83 -4 -2 -8 -10 -8 -18 0 -8 -11
-32 -25 -53 -13 -22 -45 -79 -71 -128 -26 -48 -56 -106 -68 -128 -11 -22 -23
-42 -26 -45 -6 -6 -70 -124 -108 -198 l-26 -52 46 -46 c25 -26 50 -44 55 -41
6 4 25 37 44 74 19 37 40 74 47 81 6 7 12 17 12 22 0 5 13 31 28 57 16 26 50
89 77 138 69 130 107 199 115 210 7 10 72 129 119 220 14 28 29 52 33 53 5 2
8 12 8 23 0 10 3 19 8 19 4 0 12 10 18 23 18 38 96 181 110 201 11 16 8 29
-24 92 -33 67 -52 90 -52 64z"/>
<path d="M4488 1399 c-20 -35 -52 -95 -73 -134 -21 -38 -46 -83 -55 -100 -19
-32 -58 -104 -110 -200 -37 -68 -204 -374 -230 -420 -10 -17 -36 -65 -58 -107
l-42 -77 43 -30 c23 -17 47 -35 54 -41 13 -11 15 -8 124 190 34 63 80 147 101
185 21 39 44 81 51 95 6 14 17 31 24 38 7 7 13 17 13 22 0 5 29 61 65 125 36
64 65 118 65 120 0 2 15 30 34 62 78 136 107 195 101 211 -3 9 -20 41 -39 71
l-33 53 -35 -63z"/>
<path d="M6035 1370 c-11 -5 -33 -34 -50 -67 -16 -32 -32 -60 -35 -63 -3 -3
-18 -30 -34 -60 -16 -30 -67 -125 -114 -210 -47 -85 -99 -182 -117 -215 -18
-33 -56 -102 -84 -154 -28 -52 -51 -97 -51 -100 0 -11 169 169 217 232 27 34
50 64 53 67 21 21 114 175 160 265 86 167 122 262 110 284 -12 24 -30 30 -55
21z"/>
<path d="M4656 1144 c-14 -26 -26 -49 -26 -51 0 -2 -17 -35 -38 -71 -22 -37
-61 -107 -87 -157 -27 -49 -59 -108 -71 -130 -13 -22 -37 -67 -55 -100 -17
-33 -42 -78 -54 -100 -12 -22 -38 -69 -58 -105 -19 -36 -53 -98 -75 -137 l-40
-73 43 -19 c81 -36 80 -36 108 11 22 37 82 147 232 423 21 39 63 115 93 170
31 55 67 123 82 151 14 27 34 61 43 74 9 14 17 33 17 42 0 19 -69 118 -81 118
-4 0 -19 -21 -33 -46z"/>
<path d="M4797 833 c-41 -76 -86 -158 -99 -183 -14 -25 -40 -72 -58 -105 -18
-33 -56 -103 -85 -155 -118 -216 -137 -252 -133 -255 1 -1 23 -6 48 -9 25 -4
54 -8 65 -10 11 -2 25 4 31 13 10 14 109 194 224 406 24 44 76 140 117 214
l73 134 -29 26 c-49 43 -71 61 -75 61 -2 0 -38 -62 -79 -137z"/>
<path d="M5545 830 c-31 -21 -117 -53 -153 -59 -5 0 -35 -49 -67 -108 -32 -60
-67 -120 -77 -135 -11 -16 -16 -28 -12 -28 3 0 1 -6 -5 -13 -12 -15 -71 -120
-101 -182 -11 -22 -29 -55 -40 -74 -12 -18 -19 -35 -17 -38 2 -2 49 19 103 47
96 48 100 52 134 112 57 104 64 116 100 186 19 37 38 69 41 72 4 3 20 33 37
66 17 34 45 85 62 114 17 29 29 54 28 56 -2 2 -17 -6 -33 -16z"/>
<path d="M5083 793 c-3 -10 -25 -52 -48 -93 -48 -86 -101 -184 -156 -285 -20
-38 -65 -119 -98 -179 -33 -60 -58 -112 -56 -116 5 -9 87 -3 131 9 14 3 32 18
40 31 27 48 167 305 182 335 8 17 24 42 34 58 11 15 16 27 12 27 -3 0 -2 6 4
13 5 6 22 35 37 62 15 28 36 64 46 81 l19 31 -26 11 c-14 7 -33 12 -44 12 -10
0 -22 5 -25 10 -10 16 -45 11 -52 -7z"/>
</g>
</svg>
