<?xml version="1.0" encoding="UTF-8" standalone="no"?>
<svg width="76px" height="79px" viewBox="0 0 76 79" version="1.1" xmlns="http://www.w3.org/2000/svg" xmlns:xlink="http://www.w3.org/1999/xlink">
    <!-- Generator: Sketch 39 (31667) - http://www.bohemiancoding.com/sketch -->
    <title>Page 1</title>
    <desc>Created with Sketch.</desc>
    <defs></defs>
    <g id="Page-1" stroke="none" stroke-width="1" fill="none" fill-rule="evenodd">
        <g id="Artboard-1" transform="translate(-2.000000, -1.000000)" fill="#004A55">
            <g id="Page-1" transform="translate(2.000000, 1.000000)">
                <path d="M51.3451287,53.2909596 L42.6435625,69.1966846 C43.011011,69.7255325 43.382989,70.2231715 43.758364,70.6998156 L52.2504449,55.178243 C51.9339522,54.5132111 51.6327463,53.879388 51.3451287,53.2909596" id="Fill-1"></path>
                <path d="M53.1564404,57.0634836 L44.9366904,72.0862823 C45.346036,72.536257 45.7610434,72.9584274 46.1822787,73.3505239 L54.0810066,58.9133164 C53.7599846,58.2902746 53.4525507,57.6717722 53.1564404,57.0634836" id="Fill-3"></path>
                <path d="M55.0385243,60.7041362 L47.4998846,74.4831209 C47.960186,74.8389016 48.4312449,75.154962 48.9079654,75.4483251 L56.0395243,62.4143804 C55.6941566,61.8554585 55.3612449,61.2829182 55.0385243,60.7041362" id="Fill-5"></path>
                <path d="M60.7865176,50.1977667 C61.1024441,50.7294518 61.4953706,51.2026913 61.9454809,51.6197548 L69.9370618,37.0117499 C69.3940985,36.8227946 68.8205618,36.6877455 68.2187162,36.6139791 L60.7865176,50.1977667 Z" id="Fill-7"></path>
                <path d="M67.1471706,53.5658243 C67.6748471,53.5658243 68.1883691,53.5272388 68.6883029,53.4585794 L74.9734279,41.9697558 C74.7328029,41.3308258 74.4134794,40.7242395 74.0273471,40.1585085 L66.7032882,53.547099 C66.8510603,53.5544756 66.9977,53.5658243 67.1471706,53.5658243" id="Fill-9"></path>
                <g id="Group-13" transform="translate(70.772059, 44.514581)">
                    <path d="M4.75441029,0.425575033 C4.75441029,0.290525889 4.74138824,0.156044179 4.73459412,0.0221299017 L0.185932353,8.33616375 C2.90018235,7.19845982 4.75441029,4.65806059 4.75441029,0.425575033" id="Fill-11"></path>
                </g>
                <path d="M57.0975382,64.0211815 L50.4053324,76.2533428 C50.9250824,76.4950694 51.4527588,76.711829 51.9951559,76.8883007 L58.2264941,65.4999129 C57.8386632,65.0317803 57.4615897,64.5375459 57.0975382,64.0211815" id="Fill-14"></path>
                <path d="M64.9233993,53.2587861 L72.8453404,38.7778863 C72.4303331,38.3874921 71.9739949,38.0373858 71.4780243,37.7366461 L63.337539,52.6147492 C63.8335096,52.8854149 64.3651493,53.1027419 64.9233993,53.2587861" id="Fill-16"></path>
                <path d="M66.296264,36.5862884 C65.5675949,36.6413294 64.855911,36.7672996 64.1566831,36.9573898 L60.2749772,44.0514419 C60.0190654,44.9332334 59.9001684,45.8456662 59.9001684,46.8698835 C59.9001684,47.2875144 59.943764,47.6864201 60.0122713,48.0722748 L66.296264,36.5862884 Z" id="Fill-18"></path>
                <path d="M58.7219551,39.808856 L55.843514,45.0689634 C57.1230728,43.8274192 58.2859993,42.9410883 59.1307346,42.602898 L61.7023081,37.9022799 C60.6973449,38.407863 59.7082346,39.050765 58.7219551,39.808856" id="Fill-20"></path>
                <path d="M65.7870449,69.3830297 L61.8107875,76.6512838 C62.7211993,76.2977728 63.6072654,75.8551748 64.4644566,75.3410801 L68.3082287,68.3145526 C67.5286037,68.8575864 66.6816037,69.2377667 65.7870449,69.3830297" id="Fill-22"></path>
                <path d="M62.2251721,68.8122485 L57.4132382,77.6074658 C58.1147309,77.5751221 58.8094294,77.4843328 59.4962015,77.3413395 L63.8716132,69.3433661 C63.3043044,69.2389584 62.7556794,69.0596494 62.2251721,68.8122485" id="Fill-24"></path>
                <path d="M49.7012919,49.2158233 L40.580189,65.8887182 C40.9136669,66.4771466 41.2488434,67.04458 41.5874169,67.5864789 L54.8614243,43.3241625 C53.208189,45.0389462 51.5085272,47.0226933 49.7012919,49.2158233" id="Fill-26"></path>
                <path d="M74.3847176,61.8545506 C74.1027618,61.7217712 73.7675853,61.8426345 73.6328353,62.1240815 L73.6226441,62.1428068 L73.6169824,62.153588 L67.7338426,72.9064505 C70.5919015,70.3337076 72.8781221,67.0102503 74.1905191,63.707788 C74.1910853,63.7066532 74.1922176,63.7055183 74.19335,63.7043834 L74.6581809,62.6115067 C74.7917985,62.3266552 74.6689382,61.98733 74.3847176,61.8545506" id="Fill-28"></path>
                <path d="M32.9034588,69.2965528 C31.1658632,70.5999473 29.2323706,71.4953572 27.1754515,71.4953572 C20.2686647,71.1548972 14.0407235,60.2607437 14.9460397,51.7492431 C14.9460397,45.5562752 17.2288632,40.2808471 21.6846721,36.7525464 L22.2134809,36.3559104 C22.7156794,35.9785672 22.8175912,35.264736 22.4410838,34.7614226 C22.0883559,34.2898855 21.4417824,34.1758314 20.9486426,34.4748688 C10.3990765,39.6243267 0.000113235294,45.5506009 0.000113235294,59.125877 C0.000113235294,68.6593252 8.26572353,77.6242051 18.0039588,77.6242051 C22.5027971,77.6242051 26.6398485,76.2067565 30.5085324,73.6743013 L32.9034588,69.2965528 Z" id="Fill-30"></path>
                <path d="M27.1346868,35.3610862 C30.247525,43.8640754 33.8535029,52.4232404 37.6621721,60.5988205 L46.8619735,43.7829324 C44.6363338,38.7957605 42.5901721,33.7881609 40.7115985,28.6370007 C40.4992824,28.1297153 40.1607088,27.1531624 39.9178191,26.4279826 C38.2696794,21.7960239 36.5739809,15.2972094 36.5739809,11.2349539 C36.5739809,6.24210761 38.8386868,2.04310062 44.3872162,2.04310062 C50.16165,2.04310062 54.0122162,6.69548688 54.0122162,12.1434147 C54.0122162,17.5459479 50.1809,21.2773898 45.7851059,23.9658891 L45.0694588,24.3903293 C44.6431279,24.6473766 44.5055471,25.201759 44.762025,25.6296038 C45.0179368,26.0563137 45.6146868,26.2600223 46.0415838,26.0035424 L47.6183853,24.976488 C47.6348044,24.9668416 47.6483926,24.9532232 47.6636794,24.942442 C52.1228853,21.9827095 56.0504515,17.8654129 56.0504515,12.7108481 C56.0504515,4.53980748 50.2760176,0.000340460026 42.4622162,0.000340460026 C31.0260176,0.000340460026 24.3451353,9.9871679 24.3451353,20.654348 C24.3451353,24.3994082 25.0245471,28.3714419 26.0430985,32.0030155 C26.0408338,32.0041504 26.8702824,34.558168 27.1346868,35.3610862" id="Fill-32"></path>
                <path d="M59.4396404,66.8218057 L53.6969125,77.3181883 C54.2846037,77.4333772 54.8802213,77.5241666 55.4962213,77.5706961 L60.7627949,67.9447563 C60.307589,67.6133752 59.8665375,67.2371669 59.4396404,66.8218057" id="Fill-34"></path>
                <path d="M69.3566176,9.80025535 C69.3911544,9.73840511 69.4155,9.6737177 69.4341838,9.6090303 C69.5491176,9.2044503 69.3764338,8.75958253 68.9925662,8.54849731 C68.6879632,8.3816719 68.3318382,8.40834127 68.0578088,8.58311075 C67.9309853,8.66368629 67.8205809,8.7726335 67.7430147,8.91392441 L47.6754559,45.5843064 L38.4898088,62.3678508 L36.8133603,65.4319911 L33.5267059,71.4365711 L30.3759338,77.1954524 C30.2955368,77.3412828 30.2632647,77.501299 30.2666618,77.6573432 C30.2734559,77.9756733 30.4410441,78.2826548 30.7399853,78.446643 C30.8803971,78.523814 31.0321324,78.5606971 31.1816029,78.5606971 C31.4697868,78.5606971 31.7438162,78.4188388 31.9204632,78.1748424 C31.9431103,78.1430662 31.9702868,78.1163968 31.9889706,78.0817834 L38.0062941,67.0866268 L48.6339926,47.6667869 L69.3566176,9.80025535 Z" id="Fill-36"></path>
            </g>
        </g>
    </g>
</svg>